<?xml version="1.0" standalone="no"?>
<!DOCTYPE svg PUBLIC "-//W3C//DTD SVG 20010904//EN"
 "http://www.w3.org/TR/2001/REC-SVG-20010904/DTD/svg10.dtd">
<svg version="1.0" xmlns="http://www.w3.org/2000/svg"
 width="1000.000000pt" height="1000.000000pt" viewBox="0 0 1000.000000 1000.000000"
 preserveAspectRatio="xMidYMid meet">
<metadata>
Created by potrace 1.11, written by Peter Selinger 2001-2013
</metadata>
<g transform="translate(0.000000,1000.000000) scale(0.100000,-0.100000)"
fill="#000000" stroke="none">
<path d="M4680 8990 c-87 -8 -184 -19 -220 -25 -27 -4 -85 -13 -140 -21 -70
-11 -228 -45 -340 -74 -654 -171 -1278 -523 -1760 -994 -165 -162 -248 -253
-371 -411 -300 -384 -519 -800 -663 -1255 -40 -127 -94 -336 -110 -425 -3 -16
-8 -41 -11 -55 -2 -13 -7 -42 -11 -65 -3 -22 -7 -47 -9 -55 -2 -8 -6 -40 -10
-70 -4 -30 -8 -65 -10 -78 -27 -171 -27 -782 -1 -919 2 -10 7 -45 11 -78 11
-100 12 -105 44 -265 97 -476 274 -917 537 -1336 120 -190 258 -372 413 -543
515 -569 1151 -963 1896 -1177 13 -4 96 -25 115 -29 8 -2 38 -9 65 -15 28 -6
59 -14 70 -16 23 -5 174 -33 220 -40 17 -2 41 -6 55 -9 14 -2 54 -7 90 -10 36
-4 94 -10 130 -15 65 -8 643 -5 690 3 14 3 55 8 92 11 37 4 77 9 90 11 13 2
41 6 63 9 38 6 54 9 120 21 17 4 46 9 65 11 19 3 53 10 75 16 22 5 47 11 55
13 122 24 385 107 555 175 125 50 269 113 295 130 8 5 34 18 57 29 60 28 295
166 383 224 195 130 434 324 590 479 201 199 336 359 482 571 43 62 81 117 86
122 4 6 11 17 15 25 4 8 15 27 25 41 83 127 233 425 303 604 22 55 44 109 49
120 55 128 168 568 194 755 2 19 7 55 11 80 14 101 16 119 23 205 14 177 6
692 -12 791 -2 10 -7 44 -10 75 -4 31 -9 67 -11 80 -3 13 -7 39 -10 56 -4 34
-15 97 -21 123 -2 8 -11 49 -19 90 -28 128 -115 425 -145 495 -5 11 -27 67
-50 125 -101 257 -280 582 -454 826 -182 254 -435 530 -655 714 -29 25 -63 54
-75 64 -46 41 -247 187 -341 248 -191 125 -452 263 -645 343 -234 96 -541 190
-755 229 -115 22 -271 46 -330 51 -38 4 -83 9 -100 12 -51 8 -595 10 -675 3z"/>
</g>
</svg>
